<svg xmlns="http://www.w3.org/2000/svg" width="960" height="540" viewBox="0 0 960 540">
  <defs>
    <linearGradient id="bg" x1="0" y1="0" x2="1" y2="1">
      <stop offset="0" stop-color="#071326"/>
      <stop offset="0.55" stop-color="#0b2342"/>
      <stop offset="1" stop-color="#17123a"/>
    </linearGradient>
    <linearGradient id="accent" x1="0" y1="0" x2="1" y2="0">
      <stop offset="0" stop-color="#118cf7"/>
      <stop offset="1" stop-color="#795cff"/>
    </linearGradient>
  </defs>
  <rect width="960" height="540" rx="28" fill="url(#bg)"/>
  <g opacity=".14" stroke="#8bc8ff">
    <path d="M0 90H960M0 180H960M0 270H960M0 360H960M0 450H960"/>
    <path d="M120 0V540M240 0V540M360 0V540M480 0V540M600 0V540M720 0V540M840 0V540"/>
  </g>
  <rect x="58" y="54" width="844" height="432" rx="22" fill="#07101f" stroke="#2e4770"/>
  <rect x="84" y="82" width="792" height="48" rx="10" fill="#0d1c34"/>
  <circle cx="108" cy="106" r="5" fill="#ff7a00"/>
  <circle cx="128" cy="106" r="5" fill="#118cf7"/>
  <circle cx="148" cy="106" r="5" fill="#795cff"/>
  <rect x="170" y="95" width="180" height="20" rx="7" fill="#142a4a"/>
  
  <rect x="84" y="158" width="235" height="110" rx="14" fill="#0c1a30" stroke="#28476c"/>
  <rect x="108" y="184" width="68" height="58" rx="9" fill="#173d67"/>
  <rect x="188" y="184" width="104" height="12" rx="6" fill="#183b64"/>
  <rect x="188" y="208" width="84" height="10" rx="5" fill="#1b2f4a"/>
  <rect x="188" y="230" width="96" height="10" rx="5" fill="#1b2f4a"/>
  <rect x="342" y="158" width="254" height="110" rx="14" fill="#0c1a30" stroke="#28476c"/>
  <rect x="366" y="184" width="205" height="58" rx="10" fill="#0f2747"/>
  <path d="M385 226V207M420 226V194M455 226V201M490 226V184M525 226V198" stroke="#118cf7" stroke-width="12"/>
  <rect x="619" y="158" width="257" height="110" rx="14" fill="#0c1a30" stroke="#28476c"/>
  <circle cx="666" cy="213" r="22" fill="#173d67"/>
  <circle cx="747" cy="190" r="16" fill="#173d67"/>
  <circle cx="812" cy="228" r="18" fill="#173d67"/>
  <path d="M688 207L731 195M762 198L796 218" stroke="#795cff" stroke-width="5"/>

  <rect x="84" y="406" width="792" height="56" rx="12" fill="#0a172b" stroke="#213a61"/>
  <rect x="106" y="425" width="190" height="16" rx="8" fill="url(#accent)"/>
  <text x="84" y="310" fill="#ffffff" font-family="Arial, sans-serif" font-size="34" font-weight="700">Insight Tera Suite</text>
  <text x="84" y="345" fill="#8eb7df" font-family="Arial, sans-serif" font-size="18">Custom Integrated ERP</text>
</svg>